<svg width="113" height="26" viewBox="0 0 113 26" fill="none" xmlns="http://www.w3.org/2000/svg">
<path d="M7.54 20.1H18.11V25H0.75V20.45L11.25 5.33H0.75V0.429999H18.11V4.98L7.54 20.1ZM41.3046 5.47V25H35.3196V22.34C34.7129 23.2033 33.8846 23.9033 32.8346 24.44C31.8079 24.9533 30.6646 25.21 29.4046 25.21C27.9113 25.21 26.5929 24.8833 25.4496 24.23C24.3063 23.5533 23.4196 22.585 22.7896 21.325C22.1596 20.065 21.8446 18.5833 21.8446 16.88V5.47H27.7946V16.075C27.7946 17.3817 28.1329 18.3967 28.8096 19.12C29.4863 19.8433 30.3963 20.205 31.5396 20.205C32.7063 20.205 33.6279 19.8433 34.3046 19.12C34.9813 18.3967 35.3196 17.3817 35.3196 16.075V5.47H41.3046ZM70.5236 5.26C72.9503 5.26 74.8753 5.995 76.2986 7.465C77.7453 8.935 78.4686 10.9767 78.4686 13.59V25H72.5186V14.395C72.5186 13.135 72.1803 12.1667 71.5036 11.49C70.8503 10.79 69.9403 10.44 68.7736 10.44C67.6069 10.44 66.6853 10.79 66.0086 11.49C65.3553 12.1667 65.0286 13.135 65.0286 14.395V25H59.0786V14.395C59.0786 13.135 58.7403 12.1667 58.0636 11.49C57.4103 10.79 56.5003 10.44 55.3336 10.44C54.1669 10.44 53.2453 10.79 52.5686 11.49C51.9153 12.1667 51.5886 13.135 51.5886 14.395V25H45.6036V5.47H51.5886V7.92C52.1953 7.10333 52.9886 6.46167 53.9686 5.995C54.9486 5.505 56.0569 5.26 57.2936 5.26C58.7636 5.26 60.0703 5.575 61.2136 6.205C62.3803 6.835 63.2903 7.73333 63.9436 8.9C64.6203 7.82667 65.5419 6.95167 66.7086 6.275C67.8753 5.59833 69.1469 5.26 70.5236 5.26ZM81.4644 15.2C81.4644 13.1933 81.8377 11.4317 82.5844 9.915C83.3544 8.39833 84.3927 7.23167 85.6994 6.415C87.006 5.59833 88.4644 5.19 90.0744 5.19C91.451 5.19 92.6527 5.47 93.6794 6.03C94.7294 6.59 95.5344 7.325 96.0944 8.235V5.47H102.079V25H96.0944V22.235C95.511 23.145 94.6944 23.88 93.6444 24.44C92.6177 25 91.416 25.28 90.0394 25.28C88.4527 25.28 87.006 24.8717 85.6994 24.055C84.3927 23.215 83.3544 22.0367 82.5844 20.52C81.8377 18.98 81.4644 17.2067 81.4644 15.2ZM96.0944 15.235C96.0944 13.7417 95.6744 12.5633 94.8344 11.7C94.0177 10.8367 93.0144 10.405 91.8244 10.405C90.6344 10.405 89.6194 10.8367 88.7794 11.7C87.9627 12.54 87.5544 13.7067 87.5544 15.2C87.5544 16.6933 87.9627 17.8833 88.7794 18.77C89.6194 19.6333 90.6344 20.065 91.8244 20.065C93.0144 20.065 94.0177 19.6333 94.8344 18.77C95.6744 17.9067 96.0944 16.7283 96.0944 15.235Z" fill="#203656"/>
<path d="M109.209 25.28C108.159 25.28 107.296 24.9767 106.619 24.37C105.966 23.74 105.639 22.97 105.639 22.06C105.639 21.1267 105.966 20.345 106.619 19.715C107.296 19.085 108.159 18.77 109.209 18.77C110.236 18.77 111.076 19.085 111.729 19.715C112.406 20.345 112.744 21.1267 112.744 22.06C112.744 22.97 112.406 23.74 111.729 24.37C111.076 24.9767 110.236 25.28 109.209 25.28Z" fill="#FE4F70"/>
</svg>
